<?xml version="1.0" standalone="no"?>
<!DOCTYPE svg PUBLIC "-//W3C//DTD SVG 20010904//EN"
 "http://www.w3.org/TR/2001/REC-SVG-20010904/DTD/svg10.dtd">
<svg version="1.0" xmlns="http://www.w3.org/2000/svg"
 width="512.000000pt" height="512.000000pt" viewBox="0 0 512.000000 512.000000"
 preserveAspectRatio="xMidYMid meet">
<metadata>
Created by potrace 1.16, written by Peter Selinger 2001-2019
</metadata>
<g transform="translate(0.000000,512.000000) scale(0.100000,-0.100000)"
fill="#000000" stroke="none">
<path d="M3160 4679 c-190 -243 -369 -476 -399 -520 -30 -43 -58 -76 -62 -74
-4 3 -86 106 -183 230 -97 124 -180 225 -185 225 -8 0 -1120 -1414 -1225
-1559 -338 -466 -481 -804 -502 -1185 -22 -392 113 -812 363 -1134 269 -345
646 -568 1088 -644 170 -29 477 -22 640 15 648 147 1152 630 1310 1255 103
408 61 803 -126 1174 -36 71 -38 79 -22 85 180 65 376 215 480 369 179 263
228 582 134 864 -41 120 -85 205 -180 346 -91 136 -757 988 -775 991 -6 2
-166 -196 -356 -438z m590 -354 c388 -495 456 -621 454 -840 -1 -120 -21 -201
-75 -305 -90 -173 -234 -294 -419 -352 -63 -19 -96 -23 -200 -22 -108 0 -136
4 -205 27 -177 59 -317 180 -404 346 -54 105 -74 186 -75 306 -1 78 4 116 23
175 48 157 120 266 440 675 179 228 227 283 237 273 6 -7 107 -134 224 -283z
m-1208 -551 c5 -7 2 -38 -6 -75 -24 -103 -30 -218 -16 -326 60 -478 430 -837
911 -880 l83 -8 67 -129 c65 -125 125 -287 151 -411 8 -37 13 -128 12 -235 0
-152 -4 -190 -26 -286 -129 -552 -547 -966 -1101 -1089 -114 -26 -383 -31
-509 -10 -401 66 -757 303 -980 651 -85 133 -164 338 -194 504 -24 129 -24
366 0 475 53 242 168 478 386 787 52 74 837 1082 977 1256 l35 43 100 -128
c56 -70 105 -133 110 -139z"/>
</g>
</svg>
