<svg width="16" height="16" viewBox="0 0 16 16" fill="none" xmlns="http://www.w3.org/2000/svg">
<g clip-path="url(#clip0_2_377)">
<path d="M9.22131 11.0453C9.359 11.1085 9.51411 11.123 9.66111 11.0863C9.8081 11.0496 9.9382 10.9639 10.03 10.8433L10.2666 10.5333C10.3908 10.3677 10.5519 10.2333 10.737 10.1407C10.9222 10.0482 11.1263 9.99998 11.3333 9.99998H13.3333C13.6869 9.99998 14.0261 10.1405 14.2761 10.3905C14.5262 10.6406 14.6666 10.9797 14.6666 11.3333V13.3333C14.6666 13.6869 14.5262 14.0261 14.2761 14.2761C14.0261 14.5262 13.6869 14.6666 13.3333 14.6666C10.1507 14.6666 7.09847 13.4024 4.84803 11.1519C2.5976 8.90149 1.33331 5.84924 1.33331 2.66665C1.33331 2.31302 1.47379 1.97389 1.72384 1.72384C1.97389 1.47379 2.31302 1.33331 2.66665 1.33331H4.66665C5.02027 1.33331 5.35941 1.47379 5.60945 1.72384C5.8595 1.97389 5.99998 2.31302 5.99998 2.66665V4.66665C5.99998 4.87364 5.95179 5.07779 5.85922 5.26293C5.76665 5.44807 5.63224 5.60912 5.46665 5.73331L5.15465 5.96731C5.03226 6.06076 4.94599 6.1937 4.91051 6.34355C4.87502 6.49339 4.8925 6.6509 4.95998 6.78931C5.8711 8.63989 7.3696 10.1365 9.22131 11.0453Z" stroke="#364153" stroke-width="1.33333" stroke-linecap="round" stroke-linejoin="round"/>
</g>
<defs>
<clipPath id="clip0_2_377">
<rect width="16" height="16" fill="white"/>
</clipPath>
</defs>
</svg>
