<svg width="16" height="16" viewBox="0 0 16 16" fill="none" xmlns="http://www.w3.org/2000/svg">
<path d="M7.68347 1.53009C7.71269 1.47107 7.75782 1.42138 7.81378 1.38664C7.86973 1.3519 7.93428 1.3335 8.00014 1.3335C8.066 1.3335 8.13055 1.3519 8.18651 1.38664C8.24246 1.42138 8.28759 1.47107 8.31681 1.53009L9.85681 4.64943C9.95826 4.85474 10.108 5.03236 10.2932 5.16706C10.4784 5.30176 10.6936 5.3895 10.9201 5.42276L14.3641 5.92676C14.4294 5.93621 14.4907 5.96374 14.5411 6.00622C14.5916 6.04871 14.6291 6.10446 14.6495 6.16716C14.6699 6.22987 14.6723 6.29703 14.6565 6.36105C14.6407 6.42507 14.6074 6.48339 14.5601 6.52943L12.0695 8.95476C11.9052 9.11483 11.7823 9.31241 11.7114 9.53051C11.6404 9.74861 11.6235 9.98068 11.6621 10.2068L12.2501 13.6334C12.2617 13.6987 12.2546 13.7658 12.2298 13.8272C12.205 13.8886 12.1634 13.9418 12.1098 13.9808C12.0562 14.0197 11.9928 14.0428 11.9267 14.0474C11.8606 14.052 11.7946 14.0379 11.7361 14.0068L8.65747 12.3881C8.45462 12.2816 8.22893 12.2259 7.99981 12.2259C7.77069 12.2259 7.545 12.2816 7.34214 12.3881L4.26414 14.0068C4.2057 14.0377 4.13974 14.0516 4.07378 14.0469C4.00781 14.0422 3.94449 14.0191 3.89101 13.9802C3.83752 13.9413 3.79603 13.8882 3.77125 13.8269C3.74646 13.7656 3.73938 13.6986 3.75081 13.6334L4.33814 10.2074C4.37694 9.98125 4.36013 9.74902 4.28917 9.53079C4.2182 9.31256 4.09521 9.11486 3.93081 8.95476L1.44014 6.53009C1.39254 6.48411 1.3588 6.42569 1.34278 6.36147C1.32676 6.29726 1.3291 6.22984 1.34953 6.16689C1.36996 6.10393 1.40765 6.04799 1.45833 6.00541C1.509 5.96284 1.57061 5.93536 1.63614 5.92609L5.07947 5.42276C5.30631 5.38976 5.52173 5.30213 5.7072 5.16742C5.89266 5.0327 6.04261 4.85494 6.14414 4.64943L7.68347 1.53009Z" stroke="#F4C430" stroke-width="1.33333" stroke-linecap="round" stroke-linejoin="round"/>
</svg>
